# xmcd CD database file
# Copyright (C) 1995-1998 Ti Kan
#
# Track frame offsets:
#	182
#	18352
#	37880
#	55320
#	78460
#	98172
#	113627
#	151282
#	174245
#	199397
#	242677
#
# Disc length: 3638 seconds
#
# Revision: 2
# Processed by: cddbd v1.4b41PL1 Copyright (c) Steve Scherf et al.
# Submitted via: CDex 1.30Release
#
DISCID=800e340b
DTITLE=Craig Erickson - Force Majeure
DYEAR=1996
DGENRE=Blues
TTITLE0=Electricity
TTITLE1=Everywhere
TTITLE2=Cyberblues
TTITLE3=Strongman Down
TTITLE4=Wild Cat
TTITLE5=Give Me some Money
TTITLE6=Understanding
TTITLE7=Nothing
TTITLE8=Kick It
TTITLE9=Train Jam (Until Then)
TTITLE10=Streets of Dreams
EXTD=YEAR: 1996 ID3G:   0
EXTT0=
EXTT1=
EXTT2=
EXTT3=
EXTT4=
EXTT5=
EXTT6=
EXTT7=
EXTT8=
EXTT9=
EXTT10=
PLAYORDER=
